<svg xmlns="http://www.w3.org/2000/svg" xmlns:xlink="http://www.w3.org/1999/xlink" version="1.1" x="0px" y="0px" viewBox="0 0 96 120" style="enable-background:new 0 0 96 96;" xml:space="preserve"><path d="M62,41c-0.3-4.8-3-8.9-7-11.1V25h-5v-5.5c0.6-0.4,1.1-0.9,1.5-1.5h7.1c0.7,1.2,2,2,3.5,2c2.2,0,4-1.8,4-4c0-2.2-1.8-4-4-4  c-1.5,0-2.8,0.8-3.5,2h-7.1c-0.7-1.2-2-2-3.5-2s-2.8,0.8-3.5,2h-7.1c-0.7-1.2-2-2-3.5-2c-2.2,0-4,1.8-4,4c0,2.2,1.8,4,4,4  c1.5,0,2.8-0.8,3.5-2h7.1c0.4,0.6,0.9,1.1,1.5,1.5V25h-5v4.9c-3.9,2.3-6.6,6.3-7,11.1h-5c-9.4,0-17,7.6-17,17v4h10v-4  c0-3.9,3.1-7,7-7h8.3c2.6,3,6.4,5,10.7,5s8.2-2,10.7-5H76V41H62z M48,53c-0.5,0-1-0.5-1-1s0.5-1,1-1c5,0,9-4,9-9c0-0.5,0.5-1,1-1  s1,0.5,1,1C59,48.1,54.1,53,48,53z"/><rect x="78" y="36" width="6" height="20"/><path d="M17,69c0,0-5,7-5,10c0,2.8,2.2,5,5,5s5-2.2,5-5C22,76,17,69,17,69z M17,82v-1c1.1,0,2-0.9,2-2h1C20,80.7,18.7,82,17,82z"/><text x="0" y="111" fill="#000000" font-size="5px" font-weight="bold" font-family="'Helvetica Neue', Helvetica, Arial-Unicode, Arial, Sans-serif">Created by Simon Sim</text><text x="0" y="116" fill="#000000" font-size="5px" font-weight="bold" font-family="'Helvetica Neue', Helvetica, Arial-Unicode, Arial, Sans-serif">from the Noun Project</text></svg>