<svg xmlns="http://www.w3.org/2000/svg" width="183.801" height="17.933" viewBox="0 0 183.801 17.933">
  <g>
    <path d="M3.289,11.457V4.374h2a3.227,3.227,0,0,1,1.635.409,2.77,2.77,0,0,1,1.1,1.163,3.793,3.793,0,0,1,.391,1.732V8.13a3.793,3.793,0,0,1-.387,1.756,2.715,2.715,0,0,1-1.1,1.158,3.417,3.417,0,0,1-1.67.413Zm.934-6.318v5.555h.983a2.137,2.137,0,0,0,1.68-.672,2.775,2.775,0,0,0,.6-1.914V7.694A2.818,2.818,0,0,0,6.92,5.818a2.013,2.013,0,0,0-1.607-.679Z"/>
    <path d="M15.032,9.21a2.609,2.609,0,0,1-.829,1.734,2.72,2.72,0,0,1-1.856.611,2.5,2.5,0,0,1-2.012-.9,3.623,3.623,0,0,1-.756-2.408V7.566a4.027,4.027,0,0,1,.353-1.737,2.632,2.632,0,0,1,1-1.15,2.78,2.78,0,0,1,1.5-.4,2.558,2.558,0,0,1,1.809.63,2.638,2.638,0,0,1,.793,1.744h-.939a2.03,2.03,0,0,0-.528-1.229,1.6,1.6,0,0,0-1.135-.381,1.673,1.673,0,0,0-1.4.662,3.041,3.041,0,0,0-.508,1.884v.687A3.116,3.116,0,0,0,11,10.109a1.553,1.553,0,0,0,1.347.682,1.8,1.8,0,0,0,1.194-.352,1.963,1.963,0,0,0,.552-1.229Z"/>
    <path d="M20.218,9.6H17.25l-.666,1.853h-.963l2.7-7.083h.818l2.709,7.083h-.958ZM17.532,8.84H19.94L18.734,5.528Z"/>
    <path d="M22.806,11.457V4.374h2a3.22,3.22,0,0,1,1.634.409,2.764,2.764,0,0,1,1.1,1.163,3.78,3.78,0,0,1,.392,1.732V8.13a3.793,3.793,0,0,1-.387,1.756,2.721,2.721,0,0,1-1.1,1.158,3.424,3.424,0,0,1-1.671.413Zm.933-6.318v5.555h.983a2.139,2.139,0,0,0,1.681-.672A2.779,2.779,0,0,0,27,8.108V7.694a2.823,2.823,0,0,0-.566-1.876,2.014,2.014,0,0,0-1.608-.679Z"/>
    <path d="M35.784,7.5H31.727V6.714h4.057Zm0,2.019H31.727V8.738h4.057Z"/>
  </g>
  <g>
    <path d="M50.449,7.535h-.657L47.3,3.714V7.535h-.657V2.577H47.3l2.5,3.838V2.577h.651Z"/>
    <path d="M53.786,7.535a1.317,1.317,0,0,1-.088-.388,1.407,1.407,0,0,1-1.049.456,1.3,1.3,0,0,1-.894-.308,1,1,0,0,1-.349-.781,1.042,1.042,0,0,1,.437-.894A2.065,2.065,0,0,1,53.074,5.3h.614V5.012a.706.706,0,0,0-.2-.526.792.792,0,0,0-.582-.2.923.923,0,0,0-.566.17.5.5,0,0,0-.228.412h-.633a.868.868,0,0,1,.2-.533,1.323,1.323,0,0,1,.531-.406,1.766,1.766,0,0,1,.737-.15,1.458,1.458,0,0,1,1,.318,1.149,1.149,0,0,1,.374.877v1.7a2.051,2.051,0,0,0,.13.806v.055Zm-1.045-.48A1.113,1.113,0,0,0,53.3,6.9a.934.934,0,0,0,.385-.4V5.747h-.5q-1.157,0-1.157.678a.575.575,0,0,0,.2.463A.762.762,0,0,0,52.741,7.055Z"/>
  </g>
  <line x1="46.063" y1="8.967" x2="54.828" y2="8.967" fill="none" stroke="#000" stroke-miterlimit="10" stroke-width="0.398"/>
  <path d="M46.942,14.893V14.44l1.715-1.9a4.124,4.124,0,0,0,.526-.7,1.175,1.175,0,0,0,.144-.559.889.889,0,0,0-.235-.637.822.822,0,0,0-.626-.248.97.97,0,0,0-.729.267,1.018,1.018,0,0,0-.261.743h-.63a1.458,1.458,0,0,1,.441-1.105,1.631,1.631,0,0,1,1.179-.422,1.565,1.565,0,0,1,1.092.362,1.235,1.235,0,0,1,.4.965,2.836,2.836,0,0,1-.932,1.742L47.7,14.379h2.487v.514Zm5.3-2.783a1.042,1.042,0,0,0,.7-.235.784.784,0,0,0,.255-.616.768.768,0,0,0-.868-.871.9.9,0,0,0-.651.233.812.812,0,0,0-.244.617H50.81a1.261,1.261,0,0,1,.431-.978,1.568,1.568,0,0,1,1.093-.389,1.548,1.548,0,0,1,1.1.37,1.34,1.34,0,0,1,.4,1.032,1.093,1.093,0,0,1-.208.626,1.271,1.271,0,0,1-.571.452,1.231,1.231,0,0,1,.632.429,1.193,1.193,0,0,1,.222.731,1.354,1.354,0,0,1-.435,1.059,1.638,1.638,0,0,1-1.133.391,1.673,1.673,0,0,1-1.135-.378,1.25,1.25,0,0,1-.437-1H51.4a.81.81,0,0,0,.256.626.968.968,0,0,0,.684.235.95.95,0,0,0,.7-.238.918.918,0,0,0,.242-.684.832.832,0,0,0-.266-.663,1.154,1.154,0,0,0-.765-.239h-.473V12.11Z"/>
  <path d="M62.3,8.568h2.156v.544H62.3v2.345h-.588V9.112H59.6V8.568h2.111V6.3H62.3Z"/>
  <path d="M75.192,5.23l-.606.63V7.535h-.653V2.577h.653V5.029l2.2-2.452h.79L75.628,4.766l2.1,2.769h-.783Z"/>
  <line x1="69.396" y1="8.967" x2="81.692" y2="8.967" fill="none" stroke="#000" stroke-miterlimit="10" stroke-width="0.398"/>
  <path d="M71.2,12.11a1.042,1.042,0,0,0,.7-.235.784.784,0,0,0,.255-.616.768.768,0,0,0-.867-.871.9.9,0,0,0-.652.233.815.815,0,0,0-.243.617h-.63a1.265,1.265,0,0,1,.431-.978,1.568,1.568,0,0,1,1.094-.389,1.552,1.552,0,0,1,1.1.37,1.343,1.343,0,0,1,.4,1.032,1.094,1.094,0,0,1-.209.626,1.266,1.266,0,0,1-.571.452,1.227,1.227,0,0,1,.632.429,1.194,1.194,0,0,1,.223.731,1.351,1.351,0,0,1-.436,1.059,1.636,1.636,0,0,1-1.133.391,1.675,1.675,0,0,1-1.135-.378,1.25,1.25,0,0,1-.437-1h.633a.809.809,0,0,0,.255.626.968.968,0,0,0,.684.235.95.95,0,0,0,.7-.238.914.914,0,0,0,.242-.684.831.831,0,0,0-.265-.663,1.155,1.155,0,0,0-.766-.239h-.473V12.11Zm4.469.983a1.284,1.284,0,0,1-.6.143,1.311,1.311,0,0,1-.746-.211,1.365,1.365,0,0,1-.492-.594,2.018,2.018,0,0,1-.174-.845,2.058,2.058,0,0,1,.189-.895,1.377,1.377,0,0,1,.536-.609,1.523,1.523,0,0,1,.81-.211,1.385,1.385,0,0,1,1.159.549,2.4,2.4,0,0,1,.423,1.5V12.1a3.2,3.2,0,0,1-.572,2.111,2.193,2.193,0,0,1-1.725.682H74.35v-.53h.132a1.731,1.731,0,0,0,1.2-.407,1.748,1.748,0,0,0,.456-1.244A1.53,1.53,0,0,1,75.665,13.093Zm.085-.572a1.137,1.137,0,0,0,.389-.479V11.79a1.731,1.731,0,0,0-.268-1.007.823.823,0,0,0-1.348-.071,1.315,1.315,0,0,0-.252.84,1.36,1.36,0,0,0,.244.835.769.769,0,0,0,.651.328A.969.969,0,0,0,75.75,12.521ZM77.4,15.635a1.646,1.646,0,0,0,.333-.919v-.568h.616v.493a1.556,1.556,0,0,1-.168.688,1.6,1.6,0,0,1-.424.551Zm2.835-.742V10.7l-1.269.467v-.572l1.8-.677h.1v4.978Z"/>
  <path d="M92.562,9.113H88.5v-.5h4.062Z"/>
  <g>
    <path d="M109.875,5.962a1.828,1.828,0,0,1-.581,1.214A1.9,1.9,0,0,1,108,7.6a1.747,1.747,0,0,1-1.408-.63,2.533,2.533,0,0,1-.529-1.686V4.811a2.821,2.821,0,0,1,.247-1.216,1.834,1.834,0,0,1,.7-.805,1.941,1.941,0,0,1,1.049-.281,1.788,1.788,0,0,1,1.266.441,1.845,1.845,0,0,1,.556,1.221h-.657a1.426,1.426,0,0,0-.37-.861,1.116,1.116,0,0,0-.8-.266,1.172,1.172,0,0,0-.983.463,2.13,2.13,0,0,0-.355,1.319v.481a2.183,2.183,0,0,0,.337,1.284,1.087,1.087,0,0,0,.943.478,1.262,1.262,0,0,0,.836-.247,1.376,1.376,0,0,0,.387-.86Z"/>
    <path d="M111.353,7.535h-.63V2.305h.63Z"/>
  </g>
  <line x1="102.209" y1="8.967" x2="115.325" y2="8.967" fill="none" stroke="#000" stroke-miterlimit="10" stroke-width="0.398"/>
  <path d="M104.009,12.11a1.042,1.042,0,0,0,.7-.235.784.784,0,0,0,.255-.616.768.768,0,0,0-.867-.871.9.9,0,0,0-.652.233.815.815,0,0,0-.243.617h-.63A1.265,1.265,0,0,1,103,10.26a1.568,1.568,0,0,1,1.094-.389,1.552,1.552,0,0,1,1.1.37,1.343,1.343,0,0,1,.4,1.032,1.094,1.094,0,0,1-.209.626,1.266,1.266,0,0,1-.571.452,1.227,1.227,0,0,1,.632.429,1.194,1.194,0,0,1,.223.731,1.351,1.351,0,0,1-.436,1.059,1.636,1.636,0,0,1-1.133.391,1.675,1.675,0,0,1-1.135-.378,1.25,1.25,0,0,1-.437-1h.633a.809.809,0,0,0,.255.626.968.968,0,0,0,.684.235.95.95,0,0,0,.7-.238.914.914,0,0,0,.242-.684.831.831,0,0,0-.265-.663,1.157,1.157,0,0,0-.766-.239h-.473V12.11Zm3.068-2.171h2.539v.582h-2l-.15,1.35a1.6,1.6,0,0,1,.827-.214,1.367,1.367,0,0,1,1.075.447,1.753,1.753,0,0,1,.4,1.21,1.688,1.688,0,0,1-.413,1.206,1.506,1.506,0,0,1-1.155.441,1.565,1.565,0,0,1-1.072-.364,1.454,1.454,0,0,1-.473-1.007h.595a1,1,0,0,0,.3.641.942.942,0,0,0,.647.216.852.852,0,0,0,.689-.3,1.251,1.251,0,0,0,.25-.827,1.15,1.15,0,0,0-.27-.8.922.922,0,0,0-.72-.3,1.041,1.041,0,0,0-.647.18l-.167.136-.5-.129Zm3.062,5.7a1.648,1.648,0,0,0,.334-.919v-.568h.616v.493a1.544,1.544,0,0,1-.169.688,1.593,1.593,0,0,1-.424.551Zm2.223-5.7H114.9v.582h-2l-.149,1.35a1.6,1.6,0,0,1,.827-.214,1.368,1.368,0,0,1,1.075.447,1.758,1.758,0,0,1,.4,1.21,1.688,1.688,0,0,1-.413,1.206,1.508,1.508,0,0,1-1.156.441,1.567,1.567,0,0,1-1.072-.364,1.454,1.454,0,0,1-.473-1.007h.6a1,1,0,0,0,.3.641.941.941,0,0,0,.646.216.853.853,0,0,0,.69-.3,1.256,1.256,0,0,0,.249-.827,1.145,1.145,0,0,0-.27-.8.919.919,0,0,0-.72-.3,1.038,1.038,0,0,0-.646.18l-.167.136-.5-.129Z"/>
  <path d="M122.8,8.568h2.155v.544H122.8v2.345h-.589V9.112H120.1V8.568h2.11V6.3h.589Z"/>
  <path d="M133.332,5.325a3.066,3.066,0,0,1-1.224-.594,1.137,1.137,0,0,1-.383-.87,1.2,1.2,0,0,1,.468-.969,1.862,1.862,0,0,1,1.217-.383,2.037,2.037,0,0,1,.911.2,1.5,1.5,0,0,1,.62.545,1.391,1.391,0,0,1,.22.76H134.5a.908.908,0,0,0-.286-.709,1.167,1.167,0,0,0-.808-.258,1.193,1.193,0,0,0-.754.213.711.711,0,0,0-.27.592.641.641,0,0,0,.257.513,2.506,2.506,0,0,0,.875.384,4.066,4.066,0,0,1,.966.383,1.46,1.46,0,0,1,.518.489,1.24,1.24,0,0,1,.169.657,1.158,1.158,0,0,1-.47.966,2.008,2.008,0,0,1-1.257.362,2.322,2.322,0,0,1-.953-.2,1.6,1.6,0,0,1-.682-.536,1.3,1.3,0,0,1-.241-.773h.658a.852.852,0,0,0,.332.71,1.392,1.392,0,0,0,.886.261,1.284,1.284,0,0,0,.794-.212.684.684,0,0,0,.276-.575.675.675,0,0,0-.255-.564A2.948,2.948,0,0,0,133.332,5.325Z"/>
  <line x1="129.893" y1="8.967" x2="136.836" y2="8.967" fill="none" stroke="#000" stroke-miterlimit="10" stroke-width="0.398"/>
  <path d="M131.458,14.893V10.7l-1.269.467v-.572l1.8-.677h.1v4.978Zm4.344-4.424h-.115a1.661,1.661,0,0,0-1.171.436,1.811,1.811,0,0,0-.5,1.188,1.341,1.341,0,0,1,1.068-.45,1.286,1.286,0,0,1,1.033.456,1.765,1.765,0,0,1,.386,1.178,1.755,1.755,0,0,1-.417,1.225,1.435,1.435,0,0,1-1.118.459,1.414,1.414,0,0,1-1.153-.546,2.166,2.166,0,0,1-.443-1.407v-.242a3.263,3.263,0,0,1,.584-2.091,2.145,2.145,0,0,1,1.737-.74h.112Zm-1.422,1.892a1.011,1.011,0,0,0-.378.487v.231a1.624,1.624,0,0,0,.276.987.825.825,0,0,0,.687.374.8.8,0,0,0,.669-.313,1.506,1.506,0,0,0,0-1.645.791.791,0,0,0-.655-.315A1.008,1.008,0,0,0,134.38,12.361Z"/>
  <path d="M146.648,10.586l1.743-1.776-1.669-1.7.384-.389,1.664,1.7,1.668-1.7.384.389-1.668,1.7,1.742,1.776-.385.385L148.77,9.2l-1.737,1.771Z"/>
  <path d="M158.4,11.457v-6l-1.816.667V5.3l2.58-.968h.141v7.121Zm6.676-.672a2.245,2.245,0,0,1-3.368.017,3.905,3.905,0,0,1-.565-2.246v-1.2a4.028,4.028,0,0,1,.54-2.322,2.284,2.284,0,0,1,3.378-.027,3.889,3.889,0,0,1,.555,2.261V8.434A4.12,4.12,0,0,1,165.073,10.785Zm-.682-5.25a1.107,1.107,0,0,0-1.017-.523,1.092,1.092,0,0,0-1.007.521,3.217,3.217,0,0,0-.327,1.6v1.44a3.34,3.34,0,0,0,.334,1.7,1.1,1.1,0,0,0,1.01.548,1.089,1.089,0,0,0,.991-.516,3.24,3.24,0,0,0,.338-1.625V7.2A3.3,3.3,0,0,0,164.391,5.535Zm6.471,5.25a2.245,2.245,0,0,1-3.368.017,3.913,3.913,0,0,1-.565-2.246v-1.2a4.028,4.028,0,0,1,.54-2.322,2.285,2.285,0,0,1,3.379-.027,3.882,3.882,0,0,1,.554,2.261V8.434A4.12,4.12,0,0,1,170.862,10.785Zm-.681-5.25a1.107,1.107,0,0,0-1.018-.523,1.092,1.092,0,0,0-1.007.521,3.219,3.219,0,0,0-.326,1.6v1.44a3.34,3.34,0,0,0,.334,1.7,1.1,1.1,0,0,0,1.009.548,1.089,1.089,0,0,0,.991-.516,3.24,3.24,0,0,0,.338-1.625V7.2A3.31,3.31,0,0,0,170.181,5.535Zm6.47,5.25a2.245,2.245,0,0,1-3.368.017,3.913,3.913,0,0,1-.565-2.246v-1.2a4.027,4.027,0,0,1,.541-2.322,2.284,2.284,0,0,1,3.378-.027,3.889,3.889,0,0,1,.555,2.261V8.434A4.111,4.111,0,0,1,176.651,10.785Zm-.681-5.25a1.107,1.107,0,0,0-1.017-.523,1.092,1.092,0,0,0-1.008.521,3.23,3.23,0,0,0-.326,1.6v1.44a3.34,3.34,0,0,0,.334,1.7,1.1,1.1,0,0,0,1.009.548,1.089,1.089,0,0,0,.991-.516,3.229,3.229,0,0,0,.338-1.625V7.2A3.31,3.31,0,0,0,175.97,5.535Z"/>
  <path d="M40.526,8.785A10.705,10.705,0,0,1,40.9,5.954,9.167,9.167,0,0,1,42,3.442a4.886,4.886,0,0,1,1.55-1.634l.194.541a3.927,3.927,0,0,0-.875.916A6.93,6.93,0,0,0,42.09,4.7a10.376,10.376,0,0,0-.551,1.861,11.829,11.829,0,0,0-.21,2.343,11.239,11.239,0,0,0,.317,2.687,9,9,0,0,0,.872,2.276,4.638,4.638,0,0,0,1.223,1.48l-.194.515a4.961,4.961,0,0,1-1.57-1.641,8.914,8.914,0,0,1-1.086-2.493A11.319,11.319,0,0,1,40.526,8.785Z" fill="#231f20"/>
  <path d="M96.208,8.785a10.705,10.705,0,0,1,.375-2.831,9.137,9.137,0,0,1,1.1-2.512,4.886,4.886,0,0,1,1.55-1.634l.194.541a3.927,3.927,0,0,0-.875.916,6.93,6.93,0,0,0-.776,1.43,10.3,10.3,0,0,0-.551,1.861,11.829,11.829,0,0,0-.21,2.343,11.189,11.189,0,0,0,.317,2.687,9,9,0,0,0,.872,2.276,4.638,4.638,0,0,0,1.223,1.48l-.194.515a4.961,4.961,0,0,1-1.57-1.641,8.916,8.916,0,0,1-1.087-2.493A11.363,11.363,0,0,1,96.208,8.785Z" fill="#231f20"/>
  <path d="M85.625,8.886a10.881,10.881,0,0,1-.364,2.83,8.969,8.969,0,0,1-1.079,2.489A5,5,0,0,1,82.6,15.857l-.193-.515a4.466,4.466,0,0,0,1.213-1.45A8.891,8.891,0,0,0,84.5,11.6a11.864,11.864,0,0,0,.321-2.837A10.992,10.992,0,0,0,84.5,6.1a9.315,9.315,0,0,0-.885-2.3,4.457,4.457,0,0,0-1.206-1.474l.193-.514a5.009,5.009,0,0,1,1.558,1.644,9.15,9.15,0,0,1,1.089,2.506A11.143,11.143,0,0,1,85.625,8.886Z" fill="#231f20"/>
  <path d="M142.9,8.886a10.881,10.881,0,0,1-.364,2.83,8.94,8.94,0,0,1-1.079,2.489,5.009,5.009,0,0,1-1.577,1.652l-.194-.515a4.452,4.452,0,0,0,1.212-1.45,8.928,8.928,0,0,0,.879-2.29,11.862,11.862,0,0,0,.322-2.837,10.992,10.992,0,0,0-.322-2.67,9.315,9.315,0,0,0-.885-2.3,4.445,4.445,0,0,0-1.206-1.474l.194-.514a5.015,5.015,0,0,1,1.556,1.644,9.122,9.122,0,0,1,1.09,2.506A11.143,11.143,0,0,1,142.9,8.886Z" fill="#231f20"/>
</svg>
